<?xml version="1.0" standalone="no"?><!DOCTYPE svg PUBLIC "-//W3C//DTD SVG 1.1//EN" "http://www.w3.org/Graphics/SVG/1.1/DTD/svg11.dtd"><svg t="1663057713274" class="icon" viewBox="0 0 1024 1024" version="1.1" xmlns="http://www.w3.org/2000/svg" p-id="9961" xmlns:xlink="http://www.w3.org/1999/xlink" width="64" height="64"><path d="M512 481.4c-64.9 0-117.8-52.8-117.8-117.8S447.1 245.8 512 245.8s117.8 52.8 117.8 117.8S576.9 481.4 512 481.4z m0-215.5c-53.9 0-97.7 43.8-97.7 97.7s43.8 97.7 97.7 97.7c53.9 0 97.7-43.8 97.7-97.7s-43.8-97.7-97.7-97.7z" p-id="9962"></path><path d="M512 505.9c-78.5 0-142.3-63.8-142.3-142.3S433.5 221.3 512 221.3c78.5 0 142.3 63.8 142.3 142.3S590.5 505.9 512 505.9z m0-215.5c-40.3 0-73.2 32.8-73.2 73.2s32.8 73.2 73.2 73.2c40.3 0 73.2-32.8 73.2-73.2s-32.9-73.2-73.2-73.2z" fill="#FFAB00" p-id="9963"></path><path d="M512 915.7l-8.1-11.1C492.7 889.2 229.2 526.1 229.2 374 229.2 218 356 91.1 512 91.1S794.8 218 794.8 373.9c0 152.2-263.5 515.3-274.7 530.7l-8.1 11.1z m0-804.5c-144.9 0-262.8 117.9-262.8 262.8 0 131.3 217.6 444.1 262.8 507.5 45.1-63.4 262.8-376.3 262.8-507.5 0-144.9-117.9-262.8-262.8-262.8z" p-id="9964"></path><path d="M512 957.4l-27.9-38.3C455.5 879.8 204.6 531.2 204.6 374c0-169.5 137.9-307.4 307.4-307.4S819.4 204.5 819.4 374c0 157.3-250.8 505.9-279.4 545.1l-28 38.3z m0-821.6c-131.4 0-238.2 106.9-238.2 238.2 0 90.8 124.1 300.8 238.2 464.9 114.1-164.1 238.2-374 238.2-464.9 0-131.4-106.8-238.2-238.2-238.2z" fill="#6C8CD5" p-id="9965"></path></svg>